HIERARCHY
ROOT Hips
{
	OFFSET 0.00000 0.00000 0.00000
	CHANNELS 6 Xposition Yposition Zposition Zrotation Yrotation Xrotation 
	JOINT LHipJoint
	{
		OFFSET 0 0 0
		CHANNELS 3 Zrotation Yrotation Xrotation
		JOINT LeftUpLeg
		{
			OFFSET 1.36337 -1.57426 1.11036
			CHANNELS 3 Zrotation Yrotation Xrotation
			JOINT LeftLeg
			{
				OFFSET 2.38468 -6.55187 0.00000
				CHANNELS 3 Zrotation Yrotation Xrotation
				JOINT LeftFoot
				{
					OFFSET 2.37166 -6.51609 0.00000
					CHANNELS 3 Zrotation Yrotation Xrotation
					JOINT LeftToeBase
					{
						OFFSET 0.29078 -0.79891 2.01393
						CHANNELS 3 Zrotation Yrotation Xrotation
						End Site
						{
							OFFSET 0.00000 -0.00000 1.07924
						}
					}
				}
			}
		}
	}
	JOINT RHipJoint
	{
		OFFSET 0 0 0
		CHANNELS 3 Zrotation Yrotation Xrotation
		JOINT RightUpLeg
		{
			OFFSET -1.36349 -1.57426 1.11036
			CHANNELS 3 Zrotation Yrotation Xrotation
			JOINT RightLeg
			{
				OFFSET -2.29562 -6.30717 0.00000
				CHANNELS 3 Zrotation Yrotation Xrotation
				JOINT RightFoot
				{
					OFFSET -2.40985 -6.62100 0.00000
					CHANNELS 3 Zrotation Yrotation Xrotation
					JOINT RightToeBase
					{
						OFFSET -0.23197 -0.63733 1.92232
						CHANNELS 3 Zrotation Yrotation Xrotation
						End Site
						{
							OFFSET -0.00000 -0.00000 1.01562
						}
					}
				}
			}
		}
	}
	JOINT LowerBack
	{
		OFFSET 0 0 0
		CHANNELS 3 Zrotation Yrotation Xrotation
		JOINT Spine
		{
			OFFSET -0.08565 2.03602 -0.24562
			CHANNELS 3 Zrotation Yrotation Xrotation
			JOINT Spine1
			{
				OFFSET -0.00036 2.05693 0.00216
				CHANNELS 3 Zrotation Yrotation Xrotation
				JOINT Neck
				{
					OFFSET 0 0 0
					CHANNELS 3 Zrotation Yrotation Xrotation
					JOINT Neck1
					{
						OFFSET -0.03664 1.69515 0.31789
						CHANNELS 3 Zrotation Yrotation Xrotation
						JOINT Head
						{
							OFFSET 0.00932 1.70181 -0.46013
							CHANNELS 3 Zrotation Yrotation Xrotation
							End Site
							{
								OFFSET 0.01243 1.77620 -0.19377
							}
						}
					}
				}
				JOINT LeftShoulder
				{
					OFFSET 0 0 0
					CHANNELS 3 Zrotation Yrotation Xrotation
					JOINT LeftArm
					{
						OFFSET 3.74344 0.81315 -0.36647
						CHANNELS 3 Zrotation Yrotation Xrotation
						JOINT LeftForeArm
						{
							OFFSET 4.97185 -0.00000 -0.00000
							CHANNELS 3 Zrotation Yrotation Xrotation
							JOINT LeftHand
							{
								OFFSET 3.35811 -0.00000 0.00000
								CHANNELS 3 Zrotation Yrotation Xrotation
								JOINT LeftFingerBase
								{
									OFFSET 0 0 0
									CHANNELS 3 Zrotation Yrotation Xrotation
									JOINT LeftHandIndex1
									{
										OFFSET 0.62278 -0.00000 0.00000
										CHANNELS 3 Zrotation Yrotation Xrotation
										End Site
										{
											OFFSET 0.50210 -0.00000 0.00000
										}
									}
								}
								JOINT LThumb
								{
									OFFSET 0 0 0
									CHANNELS 3 Zrotation Yrotation Xrotation
									End Site
									{
										OFFSET 0.50976 -0.00000 0.50976
									}
								}
							}
						}
					}
				}
				JOINT RightShoulder
				{
					OFFSET 0 0 0
					CHANNELS 3 Zrotation Yrotation Xrotation
					JOINT RightArm
					{
						OFFSET -3.75385 0.50666 -0.06525
						CHANNELS 3 Zrotation Yrotation Xrotation
						JOINT RightForeArm
						{
							OFFSET -4.96493 -0.00000 -0.00000
							CHANNELS 3 Zrotation Yrotation Xrotation
							JOINT RightHand
							{
								OFFSET -3.34929 -0.00000 0.00000
								CHANNELS 3 Zrotation Yrotation Xrotation
								JOINT RightFingerBase
								{
									OFFSET 0 0 0
									CHANNELS 3 Zrotation Yrotation Xrotation
									JOINT RightHandIndex1
									{
										OFFSET -0.63804 -0.00000 0.00000
										CHANNELS 3 Zrotation Yrotation Xrotation
										End Site
										{
											OFFSET -0.51441 -0.00000 0.00000
										}
									}
								}
								JOINT RThumb
								{
									OFFSET 0 0 0
									CHANNELS 3 Zrotation Yrotation Xrotation
									End Site
									{
										OFFSET -0.52226 -0.00000 0.52226
									}
								}
							}
						}
					}
				}
			}
		}
	}
}
MOTION
Frames: 13
Frame Time: .0083333
11.4218 15.9334 -2.0353 -208.6440 -75.1120 216.0460 0.0000 0.0000 0.0000 -3.9378 6.7562 -26.8564 3.1837 10.9866 32.2348 -0.3991 13.1174 -12.2811 1.5327 -7.8161 -22.1570 0.0000 0.0000 0.0000 7.0290 -4.0368 -38.0730 -7.3096 -15.5872 50.0359 -1.3873 -6.1594 -25.2359 -0.0000 -0.0242 0.0665 1.1535 -3.7670 29.4830 -0.6126 -5.1023 5.1297 0.5978 -2.6316 -10.5963 -12.3375 -10.7424 -26.3390 7.3865 -11.7063 14.1218 2.6059 -5.3073 9.8914 0.0000 0.0000 0.0000 -73.6053 -4.2792 42.0499 32.4038 -42.8667 -13.0147 -0.0000 0.0000 -23.6968 21.0363 -10.6430 -4.0629 -7.1250 0.0000 -0.0000 -4.2535 18.6138 2.6807 0.0000 0.0000 0.0000 79.2475 12.1066 35.6856 -22.2369 33.2438 -6.7153 0.0000 -0.0000 -14.4251 -11.1574 -22.5092 4.3180 7.1250 -0.0000 -0.0000 18.0910 -51.9700 -3.1909
11.3901 15.9556 -2.0131 -209.8420 -75.1749 217.2380 0.0000 0.0000 0.0000 -4.0045 5.8854 -25.5697 2.6866 10.1695 29.5275 -0.4625 13.6481 -12.0992 1.3285 -7.2991 -20.6045 0.0000 0.0000 0.0000 6.6844 -4.3820 -37.7457 -7.1683 -15.4720 49.5079 -1.3651 -5.9848 -24.9596 -0.0011 -0.2174 0.5974 0.9205 -3.6566 29.1777 -0.6835 -5.0302 5.0359 0.6075 -2.5879 -10.5395 -12.2097 -10.6472 -26.3024 7.2196 -11.5929 14.1712 2.5502 -5.2677 9.8721 0.0000 -0.0000 0.0000 -74.0315 -3.8647 41.5014 32.0635 -42.5977 -12.7838 -0.0000 0.0000 -23.2105 21.6546 -10.9077 -4.2965 -7.1250 0.0000 -0.0000 -3.8244 18.2812 2.4372 0.0000 -0.0000 0.0000 79.0406 12.1383 35.4028 -21.9295 32.8972 -6.5475 0.0000 -0.0000 -14.6872 -10.9364 -22.9300 4.3053 7.1250 -0.0000 -0.0000 18.5099 -52.3336 -3.4375
11.3612 15.9780 -1.9853 -210.4420 -75.4370 217.8820 0.0000 0.0000 0.0000 -3.9189 5.1525 -24.4670 2.2574 9.3828 27.0002 -0.5283 13.9204 -11.1342 1.1787 -6.8905 -19.3914 0.0000 0.0000 0.0000 6.5932 -4.6214 -37.4164 -7.0258 -15.3535 48.9717 -1.3203 -6.2219 -24.7607 -0.0008 -0.1864 0.5122 0.9606 -3.5789 28.7688 -0.7541 -4.9215 5.0189 0.4395 -2.5399 -10.3633 -12.0729 -10.4903 -25.9632 7.2261 -11.4590 13.9195 2.5702 -5.2081 9.7067 0.0000 -0.0000 0.0000 -74.2780 -3.5953 41.1987 31.8301 -42.4113 -12.6261 -0.0000 0.0000 -22.9328 22.2683 -10.8969 -4.4264 -7.1250 0.0000 -0.0000 -3.3916 18.2402 2.1634 0.0000 -0.0000 0.0000 79.0144 12.3140 34.7068 -21.6067 32.5297 -6.3731 0.0000 -0.0000 -14.4188 -10.8873 -23.0315 4.3034 7.1250 -0.0000 -0.0000 18.6079 -52.4217 -3.4977
11.3293 15.9974 -1.9483 -210.2400 -75.8178 217.6570 0.0000 0.0000 0.0000 -3.6886 4.5465 -23.4247 1.9324 8.7237 24.9349 -0.5546 13.9741 -10.5125 1.0442 -6.4986 -18.2381 0.0000 0.0000 0.0000 6.7327 -4.7727 -36.9908 -6.8866 -15.2356 48.4441 -1.2610 -6.7511 -24.6367 -0.0009 0.1927 -0.5293 1.1682 -3.5240 28.4621 -0.7317 -4.7819 5.0001 0.2768 -2.4808 -10.2429 -12.0329 -10.3074 -25.4256 7.1264 -11.2565 13.6418 2.5854 -5.1385 9.4923 0.0000 0.0000 0.0000 -74.6181 -3.2748 40.9574 31.6969 -42.3042 -12.5364 -0.0000 0.0000 -22.8640 22.7350 -10.5129 -4.3720 -7.1250 0.0000 -0.0000 -3.0487 18.6126 1.9189 0.0000 0.0000 0.0000 78.9127 12.5149 33.8954 -21.2195 32.0837 -6.1661 0.0000 -0.0000 -13.9448 -10.6872 -23.1764 4.2477 7.1250 -0.0000 -0.0000 18.8740 -52.5249 -3.5994
11.2987 16.0090 -1.9046 -209.8160 -76.2329 217.1620 0.0000 0.0000 0.0000 -3.4740 4.0581 -22.5519 1.7176 8.2512 23.4796 -0.6034 14.4508 -10.5844 0.9176 -6.1033 -17.0845 0.0000 0.0000 0.0000 6.9014 -4.8340 -36.4781 -6.7447 -15.1131 47.9021 -1.2143 -7.2307 -24.5905 -0.0052 0.4672 -1.2837 1.2608 -3.4880 28.3703 -0.6130 -4.6821 4.8726 0.3199 -2.4294 -10.3372 -11.7840 -10.3485 -26.0580 6.6540 -11.2526 14.3102 2.3578 -5.1572 9.7846 -0.0000 0.0000 0.0000 -75.0818 -2.7548 40.6908 31.5339 -42.1724 -12.4268 -0.0000 0.0000 -22.6989 22.8910 -10.3867 -4.3532 -7.1250 0.0000 -0.0000 -2.9339 18.7353 1.8385 -0.0000 0.0000 0.0000 78.6857 12.5579 33.3419 -20.8098 31.6057 -5.9499 0.0000 -0.0000 -13.8619 -10.7403 -23.0642 4.2498 7.1250 -0.0000 -0.0000 18.7661 -52.4275 -3.5319
11.2721 16.0195 -1.8545 -208.7730 -76.6548 216.1570 0.0000 0.0000 0.0000 -3.2176 3.7041 -21.9965 1.5894 7.9527 22.5705 -0.6987 15.3305 -10.6909 0.7787 -5.6342 -15.7266 0.0000 0.0000 0.0000 7.1628 -4.6278 -35.9815 -6.5920 -14.9784 47.3136 -1.1545 -7.9121 -24.5950 -0.0084 0.5932 -1.6301 1.4096 -3.4222 28.1311 -0.5026 -4.5331 4.7974 0.2931 -2.3600 -10.3013 -11.8572 -10.1805 -25.4637 6.6610 -11.0610 14.0459 2.4271 -5.0871 9.5812 -0.0000 0.0000 0.0000 -75.3750 -2.4414 40.6494 31.3008 -41.9826 -12.2705 -0.0000 0.0000 -22.4194 22.9002 -10.5346 -4.4163 -7.1250 0.0000 -0.0000 -2.9327 18.5752 1.8482 -0.0000 0.0000 0.0000 78.5303 12.6750 32.9329 -20.4769 31.2127 -5.7765 0.0000 -0.0000 -14.0784 -11.6665 -22.3820 4.4956 7.1250 -0.0000 -0.0000 17.5402 -51.9337 -3.0727
11.2418 16.0404 -1.7940 -208.1610 -77.0222 215.6120 0.0000 0.0000 0.0000 -3.2556 3.5448 -21.6150 1.5182 7.7808 22.0502 -0.7326 15.6281 -10.7135 0.6897 -5.3093 -14.7928 0.0000 0.0000 0.0000 7.2497 -4.5007 -35.4583 -6.4185 -14.8220 46.6389 -1.0831 -8.6454 -24.5697 -0.0118 0.7022 -1.9297 1.4693 -3.3276 27.8140 -0.4444 -4.3832 4.7584 0.2530 -2.2897 -10.1820 -11.6010 -10.2969 -26.1390 6.2951 -11.1823 14.7879 2.2098 -5.1507 9.9275 0.0000 0.0000 0.0000 -75.6537 -2.2644 40.6114 31.1997 -41.8997 -12.2030 -0.0000 0.0000 -22.0904 22.5682 -10.8157 -4.4594 -7.1250 0.0000 -0.0000 -3.1774 18.3015 2.0220 0.0000 0.0000 0.0000 78.4814 12.9327 32.2726 -20.0759 30.7336 -5.5701 0.0000 -0.0000 -13.8999 -12.4413 -21.7827 4.6803 7.1250 -0.0000 -0.0000 16.5179 -51.4857 -2.7005
11.2078 16.0703 -1.7214 -208.2500 -77.3170 215.6610 0.0000 0.0000 0.0000 -3.5410 3.4152 -21.2609 1.4808 7.6885 21.7719 -0.7146 15.5494 -11.0059 0.6017 -4.9653 -13.8097 0.0000 0.0000 0.0000 7.0930 -4.5113 -34.7591 -6.2196 -14.6379 45.8569 -1.0419 -8.9244 -24.4527 -0.0058 0.4933 -1.3556 1.3342 -3.2437 27.7759 -0.3805 -4.2926 4.5972 0.3727 -2.2349 -10.3307 -11.8272 -10.2137 -25.4926 6.4510 -11.0941 14.5907 2.3368 -5.1201 9.7677 -0.0000 0.0000 0.0000 -76.0588 -1.8440 40.5286 31.2692 -41.9567 -12.2494 -0.0000 0.0000 -21.7950 21.8630 -11.1384 -4.4323 -7.1250 0.0000 -0.0000 -3.6849 18.0170 2.3694 -0.0000 0.0000 0.0000 78.3875 12.9121 31.5354 -19.7424 30.3307 -5.4007 0.0000 -0.0000 -13.6721 -11.3808 -22.8711 4.4733 7.1250 -0.0000 -0.0000 18.0521 -52.3535 -3.3567
11.1718 16.1041 -1.6392 -207.7720 -77.5899 215.0860 0.0000 0.0000 0.0000 -3.6926 3.2707 -20.9986 1.4574 7.6303 21.5966 -0.7288 15.7254 -11.2192 0.4986 -4.5271 -12.5646 0.0000 0.0000 0.0000 7.0255 -4.4458 -33.9501 -5.9945 -14.4230 44.9598 -0.9753 -9.2297 -24.1516 -0.0024 0.3182 -0.8743 1.3597 -3.1507 27.6632 -0.3525 -4.1561 4.5320 0.3364 -2.1692 -10.3454 -11.6513 -10.3075 -25.9235 6.1797 -11.1978 15.1476 2.1767 -5.1762 10.0188 0.0000 0.0000 0.0000 -76.4227 -1.5089 40.5991 31.2651 -41.9534 -12.2467 -0.0000 0.0000 -21.3350 21.3730 -11.4771 -4.4526 -7.1250 0.0000 -0.0000 -4.0399 17.6986 2.6271 0.0000 0.0000 0.0000 78.3706 12.9077 30.6942 -19.5232 30.0636 -5.2904 0.0000 -0.0000 -13.5058 -13.2814 -21.4044 4.9236 7.1250 -0.0000 -0.0000 15.5433 -51.2567 -2.4456
11.1348 16.1391 -1.5534 -206.9170 -77.8721 214.1480 0.0000 0.0000 0.0000 -3.7662 3.3227 -20.9134 1.4375 7.5802 21.4461 -0.7528 15.8699 -10.9998 0.4172 -4.1462 -11.4883 0.0000 0.0000 0.0000 7.0575 -4.3157 -33.1253 -5.7414 -14.1730 43.9350 -0.8493 -9.9923 -23.7383 -0.0074 0.5551 -1.5255 1.3709 -3.0144 27.3846 -0.3088 -3.9765 4.5826 0.2979 -2.0876 -10.1404 -11.7286 -10.4015 -25.9113 6.2883 -11.3286 15.2322 2.2016 -5.2273 10.0715 0.0000 -0.0000 0.0000 -76.7924 -1.4051 40.7033 31.1032 -41.8204 -12.1386 -0.0000 0.0000 -20.9563 21.0706 -12.0503 -4.5987 -7.1250 0.0000 -0.0000 -4.2695 17.1164 2.8318 0.0000 -0.0000 0.0000 78.4096 13.1628 29.7729 -19.1938 29.6588 -5.1264 0.0000 -0.0000 -13.3538 -13.8129 -20.7796 4.9850 7.1250 -0.0000 -0.0000 14.7700 -50.7320 -2.1261
11.0846 16.1779 -1.4633 -207.3180 -78.1659 214.4340 0.0000 0.0000 0.0000 -4.1240 3.3387 -20.8774 1.4407 7.5882 21.4702 -0.7429 15.7314 -10.7775 0.3294 -3.6887 -10.2024 0.0000 0.0000 0.0000 6.7917 -4.4314 -32.1594 -5.4706 -13.8949 42.8181 -0.7565 -10.5606 -23.4505 -0.0100 0.6466 -1.7769 1.1005 -2.9146 27.2385 -0.2293 -3.9041 4.4449 0.5124 -2.0376 -10.1987 -12.2356 -10.3846 -24.9275 6.7862 -11.3386 14.7397 2.4868 -5.2286 9.7994 0.0000 -0.0000 0.0000 -77.2360 -1.0088 41.0254 30.9450 -41.6897 -12.0332 -0.0000 0.0000 -21.1312 21.1148 -12.9757 -4.9556 -7.1250 0.0000 -0.0000 -4.2718 16.1306 2.9250 0.0000 -0.0000 0.0000 78.3423 13.0094 29.0513 -18.9097 29.3063 -4.9866 0.0000 -0.0000 -13.2732 -13.7621 -20.7863 4.9676 7.1250 -0.0000 -0.0000 14.8214 -50.7305 -2.1332
11.0028 16.2247 -1.3675 -209.0610 -78.4891 215.9160 0.0000 0.0000 0.0000 -4.8166 3.3589 -20.6473 1.4656 7.6507 21.6580 -0.6882 15.2515 -10.7373 0.2887 -3.4552 -9.5487 0.0000 0.0000 0.0000 6.2418 -5.1590 -30.9145 -5.1777 -13.5811 41.5848 -0.7116 -10.6768 -23.1650 -0.0140 0.7651 -2.1026 0.8129 -2.9257 26.9129 -0.2621 -3.9953 4.3630 0.6571 -2.0674 -10.1097 -12.0847 -10.4161 -25.1445 6.4270 -11.3577 15.3148 2.3217 -5.2620 10.0095 -0.0000 0.0000 0.0000 -77.6666 -0.4615 41.1065 30.9529 -41.6963 -12.0385 -0.0000 0.0000 -20.3614 21.1312 -12.7684 -4.8823 -7.1250 0.0000 -0.0000 -4.2526 16.3489 2.8917 -0.0000 0.0000 0.0000 78.4257 12.6703 28.3070 -18.6988 29.0427 -4.8838 0.0000 -0.0000 -13.0142 -13.4303 -21.3528 4.9692 7.1250 -0.0000 -0.0000 15.3779 -51.2308 -2.4086
10.9492 16.2551 -1.2753 -207.3330 -78.9987 214.2450 0.0000 0.0000 0.0000 -4.6573 3.5516 -20.9205 1.5058 7.7502 21.9580 -0.6352 14.7453 -10.6035 0.3182 -3.6259 -10.0264 0.0000 0.0000 0.0000 6.5467 -5.1267 -29.9637 -4.8746 -13.2412 40.2783 -0.5899 -11.4929 -22.8701 -0.0313 1.1413 -3.1377 0.9403 -2.8722 26.6261 -0.1255 -3.8649 4.2569 0.6797 -2.0042 -10.0800 -11.8764 -10.3910 -25.3127 6.1515 -11.3338 15.7076 2.1884 -5.2653 10.1454 -0.0000 0.0000 0.0000 -78.0250 0.0013 41.0752 31.0592 -41.7842 -12.1093 -0.0000 0.0000 -19.5545 21.2259 -12.3998 -4.7675 -7.1250 0.0000 -0.0000 -4.1735 16.7310 2.8029 -0.0000 0.0000 0.0000 78.6769 12.5303 27.4310 -18.4940 28.7850 -4.7847 0.0000 -0.0000 -12.7906 -12.5151 -22.9166 4.9400 7.1250 -0.0000 -0.0000 16.9752 -52.5929 -3.2477
